<svg xmlns="http://www.w3.org/2000/svg" width="2560" height="700"><defs><style type="text/css"><![CDATA[ 
.active {
  fill: #2aa748;
}
.lts {
  fill: #47b4ff;
}
.supported {
  fill: #89a19d;
}
.unstables {
  fill: #805D03;
}
.bar-join {
  fill: #ffffff;
}
// .bar-join.unstable, .bar-join.active {
//   display: none;
// }
.tick text {
  font-size: 36px;
  // font-family: 'Balsamiq Sans', cursive;
  // font-family: 'Comfortaa', cursive;
  font-family: 'Lato', sans-serif;
  // font-family: 'Inter', sans-serif;
  // font-family: 'Exo 2', sans-serif;
  font-weight: 300;
  // fill: #89a19d;
  // stroke: #89a19d;
  fill: black;
  stroke: black;
}
.axis--y .tick text {
  text-anchor: end;
}
.label {
  font-size: 36px;
  // font-family: 'Comfortaa', cursive;
  font-family: 'Inter', sans-serif;
  font-weight: 500;
  text-anchor: start;
  dominant-baseline: middle;
  fill: white;
  stroke: white;
} ]]></style></defs><g id="bar-container" transform="translate(150, 100)"><g class="axis axis--x" fill="none" font-size="10" font-family="sans-serif" text-anchor="middle"><g class="tick" opacity="1" transform="translate(219.48888888888888,0)"><line stroke="#000000" y2="570" x1="0.5" x2="0.5"></line><text fill="#000" y="0" x="0.5" dy="-10">Nov 2020</text></g><g class="tick" opacity="1" transform="translate(457.4888888888889,0)"><line stroke="#000000" y2="570" x1="0.5" x2="0.5" stroke-dasharray="2,2"></line><text fill="#000" y="0" x="0.5" dy="-10">Dec 2020</text></g><g class="tick" opacity="1" transform="translate(703.4222222222222,0)"><line stroke="#000000" y2="570" x1="0.5" x2="0.5"></line><text fill="#000" y="0" x="0.5" dy="-10">Jan 2021</text></g><g class="tick" opacity="1" transform="translate(949.3555555555556,0)"><line stroke="#000000" y2="570" x1="0.5" x2="0.5" stroke-dasharray="2,2"></line><text fill="#000" y="0" x="0.5" dy="-10">Feb 2021</text></g><g class="tick" opacity="1" transform="translate(1171.4888888888888,0)"><line stroke="#000000" y2="570" x1="0.5" x2="0.5"></line><text fill="#000" y="0" x="0.5" dy="-10">Mar 2021</text></g><g class="tick" opacity="1" transform="translate(1417.422222222222,0)"><line stroke="#000000" y2="570" x1="0.5" x2="0.5" stroke-dasharray="2,2"></line><text fill="#000" y="0" x="0.5" dy="-10">Apr 2021</text></g><g class="tick" opacity="1" transform="translate(1655.4222222222222,0)"><line stroke="#000000" y2="570" x1="0.5" x2="0.5"></line><text fill="#000" y="0" x="0.5" dy="-10">May 2021</text></g><g class="tick" opacity="1" transform="translate(1901.3555555555556,0)"><line stroke="#000000" y2="570" x1="0.5" x2="0.5" stroke-dasharray="2,2"></line><text fill="#000" y="0" x="0.5" dy="-10">Jun 2021</text></g><g class="tick" opacity="1" transform="translate(2139.3555555555554,0)"><line stroke="#000000" y2="570" x1="0.5" x2="0.5"></line><text fill="#000" y="0" x="0.5" dy="-10">Jul 2021</text></g></g><g class="axis axis--y" fill="none" font-size="10" font-family="sans-serif" text-anchor="start"><g class="tick" opacity="1" transform="translate(0,69.90566037735846)"><line stroke="#000000" x2="2380" y1="0.5" y2="0.5"></line><text fill="#000" x="0" y="0.5" dy="0.32em" dx="-10">1.x   </text></g><g class="tick" opacity="1" transform="translate(0,177.45283018867923)"><line stroke="#000000" x2="2380" y1="0.5" y2="0.5"></line><text fill="#000" x="0" y="0.5" dy="0.32em" dx="-10">2.0   </text></g><g class="tick" opacity="1" transform="translate(0,285)"><line stroke="#000000" x2="2380" y1="0.5" y2="0.5"></line><text fill="#000" x="0" y="0.5" dy="0.32em" dx="-10">3.0   </text></g><g class="tick" opacity="1" transform="translate(0,392.5471698113207)"><line stroke="#000000" x2="2380" y1="0.5" y2="0.5"></line><text fill="#000" x="0" y="0.5" dy="0.32em" dx="-10">3.1   </text></g><g class="tick" opacity="1" transform="translate(0,500.0943396226415)"><line stroke="#000000" x2="2380" y1="0.5" y2="0.5"></line><text fill="#000" x="0" y="0.5" dy="0.32em" dx="-10">3.2   </text></g><line y1="570" y2="570" x2="2380" stroke="#000000"></line></g><g><rect class="bar active" x="158.66666666666666" y="32.2641509433962" width="698.1333333333333" height="75.28301886792453"></rect><rect class="bar-join active" x="158.66666666666666" y="32.2641509433962" width="1" height="75.28301886792453" style="opacity: 0;"></rect><text class="label" x="178.66666666666666" y="73.90566037735846" style="opacity: 1;">active</text></g><g><rect class="bar active" x="856.8" y="139.81132075471697" width="198.33333333333348" height="75.28301886792453"></rect><rect class="bar-join active" x="856.8" y="139.81132075471697" width="1" height="75.28301886792453" style="opacity: 0;"></rect><text class="label" x="876.8" y="181.45283018867923" style="opacity: 1;">active</text></g><g><rect class="bar active" x="1055.1333333333334" y="247.35849056603772" width="388.73333333333335" height="75.28301886792453"></rect><rect class="bar-join active" x="1055.1333333333334" y="247.35849056603772" width="1" height="75.28301886792453" style="opacity: 0;"></rect><text class="label" x="1075.1333333333334" y="289" style="opacity: 1;">active</text></g><g><rect class="bar active" x="1443.8666666666668" y="354.90566037735846" width="245.93333333333317" height="75.28301886792453"></rect><rect class="bar-join active" x="1443.8666666666668" y="354.90566037735846" width="1" height="75.28301886792453" style="opacity: 0;"></rect><text class="label" x="1463.8666666666668" y="396.5471698113207" style="opacity: 1;">active</text></g><g><rect class="bar active" x="1689.8" y="462.45283018867923" width="690.2" height="75.28301886792453"></rect><rect class="bar-join active" x="1689.8" y="462.45283018867923" width="1" height="75.28301886792453" style="opacity: 0;"></rect><text class="label" x="1709.8" y="504.0943396226415" style="opacity: 1;">active</text></g></g></svg>