<svg xmlns="http://www.w3.org/2000/svg" width="2560" height="700"><defs><style type="text/css"><![CDATA[ 
.active {
  fill: #2aa748;
}
.lts {
  fill: #47b4ff;
}
.supported {
  fill: #89a19d;
}
.unstables {
  fill: #805D03;
}
.bar-join {
  fill: #ffffff;
}
// .bar-join.unstable, .bar-join.active {
//   display: none;
// }
.tick text {
  font-size: 36px;
  // font-family: 'Balsamiq Sans', cursive;
  // font-family: 'Comfortaa', cursive;
  font-family: 'Lato', sans-serif;
  // font-family: 'Inter', sans-serif;
  // font-family: 'Exo 2', sans-serif;
  font-weight: 300;
  // fill: #89a19d;
  // stroke: #89a19d;
  fill: black;
  stroke: black;
}
.axis--y .tick text {
  text-anchor: end;
}
.label {
  font-size: 36px;
  // font-family: 'Comfortaa', cursive;
  font-family: 'Inter', sans-serif;
  font-weight: 500;
  text-anchor: start;
  dominant-baseline: middle;
  fill: white;
  stroke: white;
} ]]></style></defs><g id="bar-container" transform="translate(320, 100)"><g class="axis axis--x" fill="none" font-size="10" font-family="sans-serif" text-anchor="middle"><g class="tick" opacity="1" transform="translate(271.4566210045662,0)"><line stroke="#000000" y2="570" x1="0.5" x2="0.5"></line><text fill="#000" y="0" x="0.5" dy="-10">Apr 2019</text></g><g class="tick" opacity="1" transform="translate(546.9497716894977,0)"><line stroke="#000000" y2="570" x1="0.5" x2="0.5" stroke-dasharray="2,2"></line><text fill="#000" y="0" x="0.5" dy="-10">Jul 2019</text></g><g class="tick" opacity="1" transform="translate(825.4703196347032,0)"><line stroke="#000000" y2="570" x1="0.5" x2="0.5"></line><text fill="#000" y="0" x="0.5" dy="-10">Oct 2019</text></g><g class="tick" opacity="1" transform="translate(1103.9908675799086,0)"><line stroke="#000000" y2="570" x1="0.5" x2="0.5" stroke-dasharray="2,2"></line><text fill="#000" y="0" x="0.5" dy="-10">Jan 2020</text></g><g class="tick" opacity="1" transform="translate(1379.4840182648402,0)"><line stroke="#000000" y2="570" x1="0.5" x2="0.5"></line><text fill="#000" y="0" x="0.5" dy="-10">Apr 2020</text></g><g class="tick" opacity="1" transform="translate(1654.9771689497716,0)"><line stroke="#000000" y2="570" x1="0.5" x2="0.5" stroke-dasharray="2,2"></line><text fill="#000" y="0" x="0.5" dy="-10">Jul 2020</text></g><g class="tick" opacity="1" transform="translate(1933.4977168949772,0)"><line stroke="#000000" y2="570" x1="0.5" x2="0.5"></line><text fill="#000" y="0" x="0.5" dy="-10">Oct 2020</text></g></g><g class="axis axis--y" fill="none" font-size="10" font-family="sans-serif" text-anchor="start"><g class="tick" opacity="1" transform="translate(0,58.80952380952378)"><line stroke="#000000" x2="2210" y1="0.5" y2="0.5"></line><text fill="#000" x="0" y="0.5" dy="0.32em" dx="-10">Rift 1.13.x   </text></g><g class="tick" opacity="1" transform="translate(0,149.28571428571425)"><line stroke="#000000" x2="2210" y1="0.5" y2="0.5"></line><text fill="#000" x="0" y="0.5" dy="0.32em" dx="-10">Fabric 1.14.x   </text></g><g class="tick" opacity="1" transform="translate(0,239.76190476190473)"><line stroke="#000000" x2="2210" y1="0.5" y2="0.5"></line><text fill="#000" x="0" y="0.5" dy="0.32em" dx="-10">Fabric 1.15.x   </text></g><g class="tick" opacity="1" transform="translate(0,330.23809523809524)"><line stroke="#000000" x2="2210" y1="0.5" y2="0.5"></line><text fill="#000" x="0" y="0.5" dy="0.32em" dx="-10">Fabric 1.16(.1)   </text></g><g class="tick" opacity="1" transform="translate(0,420.7142857142857)"><line stroke="#000000" x2="2210" y1="0.5" y2="0.5"></line><text fill="#000" x="0" y="0.5" dy="0.32em" dx="-10">Fabric 1.16.2   </text></g><g class="tick" opacity="1" transform="translate(0,511.1904761904762)"><line stroke="#000000" x2="2210" y1="0.5" y2="0.5"></line><text fill="#000" x="0" y="0.5" dy="0.32em" dx="-10">Fabric 1.17   </text></g><line y1="570" y2="570" x2="2210" stroke="#000000"></line></g><g><rect class="bar supported" x="227.05479452054794" y="27.14285714285711" width="372.3698630136986" height="63.333333333333336"></rect><rect class="bar-join supported" x="227.05479452054794" y="27.14285714285711" width="1" height="63.333333333333336" style="opacity: 1;"></rect><text class="label" x="247.05479452054794" y="62.80952380952378" style="opacity: 1;">supported</text></g><g><rect class="bar active" x="0" y="27.14285714285711" width="227.05479452054794" height="63.333333333333336"></rect><rect class="bar-join active" x="0" y="27.14285714285711" width="1" height="63.333333333333336" style="opacity: 0;"></rect><text class="label" x="20" y="62.80952380952378" style="opacity: 1;">active</text></g><g><rect class="bar supported" x="708.4109589041096" y="117.61904761904759" width="302.7397260273972" height="63.333333333333336"></rect><rect class="bar-join supported" x="708.4109589041096" y="117.61904761904759" width="1" height="63.333333333333336" style="opacity: 1;"></rect><text class="label" x="728.4109589041096" y="153.28571428571425" style="opacity: 1;">supported</text></g><g><rect class="bar active" x="0" y="117.61904761904759" width="708.4109589041096" height="63.333333333333336"></rect><rect class="bar-join active" x="0" y="117.61904761904759" width="1" height="63.333333333333336" style="opacity: 0;"></rect><text class="label" x="20" y="153.28571428571425" style="opacity: 1;">active</text></g><g><rect class="bar unstables" x="708.4109589041096" y="208.09523809523807" width="302.7397260273972" height="63.333333333333336"></rect><rect class="bar-join unstables" x="708.4109589041096" y="208.09523809523807" width="1" height="63.333333333333336" style="opacity: 0;"></rect><text class="label" x="728.4109589041096" y="243.76190476190473" style="opacity: 1;">unstable</text></g><g><rect class="bar supported" x="1213.986301369863" y="208.09523809523807" width="417.7808219178082" height="63.333333333333336"></rect><rect class="bar-join supported" x="1213.986301369863" y="208.09523809523807" width="1" height="63.333333333333336" style="opacity: 1;"></rect><text class="label" x="1233.986301369863" y="243.76190476190473" style="opacity: 1;">supported</text></g><g><rect class="bar active" x="1011.1506849315068" y="208.09523809523807" width="202.83561643835617" height="63.333333333333336"></rect><rect class="bar-join active" x="1011.1506849315068" y="208.09523809523807" width="1" height="63.333333333333336" style="opacity: 1;"></rect><text class="label" x="1031.150684931507" y="243.76190476190473" style="opacity: 1;">active</text></g><g><rect class="bar unstables" x="1213.986301369863" y="298.57142857142856" width="417.7808219178082" height="63.333333333333336"></rect><rect class="bar-join unstables" x="1213.986301369863" y="298.57142857142856" width="1" height="63.333333333333336" style="opacity: 0;"></rect><text class="label" x="1233.986301369863" y="334.23809523809524" style="opacity: 1;">unstable</text></g><g><rect class="bar active" x="1631.7671232876712" y="298.57142857142856" width="208.8904109589041" height="63.333333333333336"></rect><rect class="bar-join active" x="1631.7671232876712" y="298.57142857142856" width="1" height="63.333333333333336" style="opacity: 1;"></rect><text class="label" x="1651.7671232876712" y="334.23809523809524" style="opacity: 1;">active</text></g><g><rect class="bar unstables" x="1740.7534246575344" y="389.04761904761904" width="75.68493150684913" height="63.333333333333336"></rect><rect class="bar-join unstables" x="1740.7534246575344" y="389.04761904761904" width="1" height="63.333333333333336" style="opacity: 0;"></rect><text class="label" x="1760.7534246575344" y="424.7142857142857" style="opacity: 0;">unstable</text></g><g><rect class="bar active" x="1816.4383561643835" y="389.04761904761904" width="393.56164383561645" height="63.333333333333336"></rect><rect class="bar-join active" x="1816.4383561643835" y="389.04761904761904" width="1" height="63.333333333333336" style="opacity: 1;"></rect><text class="label" x="1836.4383561643835" y="424.7142857142857" style="opacity: 1;">active</text></g><g><rect class="bar unstables" x="2155.5068493150684" y="479.5238095238095" width="54.49315068493161" height="63.333333333333336"></rect><rect class="bar-join unstables" x="2155.5068493150684" y="479.5238095238095" width="1" height="63.333333333333336" style="opacity: 0;"></rect><text class="label" x="2175.5068493150684" y="515.1904761904761" style="opacity: 0;">unstable</text></g></g></svg>